<mxfile host="app.diagrams.net" agent="Mozilla/5.0 (Windows NT 10.0; Win64; x64) AppleWebKit/537.36 (KHTML, like Gecko) Chrome/137.0.0.0 Safari/537.36 Edg/137.0.0.0" version="26.0.16">
  <diagram name="Page-1" id="qpaghFqAAY1CYDwnZ_x9">
    <mxGraphModel dx="1905" dy="1022" grid="1" gridSize="10" guides="1" tooltips="1" connect="1" arrows="1" fold="1" page="1" pageScale="1" pageWidth="2339" pageHeight="3300" math="0" shadow="0">
      <root>
        <mxCell id="0" />
        <mxCell id="1" parent="0" />
        <mxCell id="bIHd8Lqd7nxUhWNbO2eW-68" value="" style="rounded=1;whiteSpace=wrap;html=1;fillColor=light-dark(#CCCCCC,var(--ge-dark-color, #121212));" vertex="1" parent="1">
          <mxGeometry x="400" y="340" width="960" height="510" as="geometry" />
        </mxCell>
        <mxCell id="bIHd8Lqd7nxUhWNbO2eW-9" value="" style="endArrow=classic;html=1;rounded=0;exitX=0.472;exitY=0.008;exitDx=0;exitDy=0;exitPerimeter=0;" edge="1" parent="1">
          <mxGeometry width="50" height="50" relative="1" as="geometry">
            <mxPoint x="841.7600000000003" y="409.99999999999994" as="sourcePoint" />
            <mxPoint x="560" y="279.44" as="targetPoint" />
          </mxGeometry>
        </mxCell>
        <mxCell id="bIHd8Lqd7nxUhWNbO2eW-1" value="" style="ellipse;whiteSpace=wrap;html=1;fillColor=light-dark(#CCFFCC,var(--ge-dark-color, #121212));" vertex="1" parent="1">
          <mxGeometry x="490" y="230" width="140" height="50" as="geometry" />
        </mxCell>
        <mxCell id="bIHd8Lqd7nxUhWNbO2eW-2" value="Topic A" style="text;html=1;align=center;verticalAlign=middle;whiteSpace=wrap;rounded=0;fontStyle=1" vertex="1" parent="1">
          <mxGeometry x="510" y="240" width="100" height="30" as="geometry" />
        </mxCell>
        <mxCell id="bIHd8Lqd7nxUhWNbO2eW-3" value="" style="ellipse;whiteSpace=wrap;html=1;fillColor=light-dark(#CCFFCC,var(--ge-dark-color, #121212));" vertex="1" parent="1">
          <mxGeometry x="770" y="230" width="140" height="50" as="geometry" />
        </mxCell>
        <mxCell id="bIHd8Lqd7nxUhWNbO2eW-4" value="Topic B" style="text;html=1;align=center;verticalAlign=middle;whiteSpace=wrap;rounded=0;fontStyle=1" vertex="1" parent="1">
          <mxGeometry x="790" y="240" width="100" height="30" as="geometry" />
        </mxCell>
        <mxCell id="bIHd8Lqd7nxUhWNbO2eW-5" value="" style="ellipse;whiteSpace=wrap;html=1;fillColor=light-dark(#CCFFCC,var(--ge-dark-color, #121212));" vertex="1" parent="1">
          <mxGeometry x="1080" y="230" width="140" height="50" as="geometry" />
        </mxCell>
        <mxCell id="bIHd8Lqd7nxUhWNbO2eW-6" value="Topic C" style="text;html=1;align=center;verticalAlign=middle;whiteSpace=wrap;rounded=0;fontStyle=1" vertex="1" parent="1">
          <mxGeometry x="1100" y="240" width="100" height="30" as="geometry" />
        </mxCell>
        <mxCell id="bIHd8Lqd7nxUhWNbO2eW-7" value="" style="rounded=0;whiteSpace=wrap;html=1;" vertex="1" parent="1">
          <mxGeometry x="540" y="410" width="640" height="70" as="geometry" />
        </mxCell>
        <mxCell id="bIHd8Lqd7nxUhWNbO2eW-8" value="Listener Service" style="text;html=1;align=center;verticalAlign=middle;whiteSpace=wrap;rounded=0;fontStyle=1" vertex="1" parent="1">
          <mxGeometry x="800" y="415" width="100" height="30" as="geometry" />
        </mxCell>
        <mxCell id="bIHd8Lqd7nxUhWNbO2eW-10" value="" style="endArrow=classic;html=1;rounded=0;exitX=0.469;exitY=-0.006;exitDx=0;exitDy=0;exitPerimeter=0;" edge="1" parent="1" source="bIHd8Lqd7nxUhWNbO2eW-7">
          <mxGeometry width="50" height="50" relative="1" as="geometry">
            <mxPoint x="799.9999999999998" y="389.9999999999999" as="sourcePoint" />
            <mxPoint x="839.6800000000001" y="279.84000000000003" as="targetPoint" />
          </mxGeometry>
        </mxCell>
        <mxCell id="bIHd8Lqd7nxUhWNbO2eW-11" value="" style="endArrow=classic;html=1;rounded=0;entryX=0.5;entryY=1;entryDx=0;entryDy=0;" edge="1" parent="1">
          <mxGeometry width="50" height="50" relative="1" as="geometry">
            <mxPoint x="840" y="410" as="sourcePoint" />
            <mxPoint x="1170" y="280" as="targetPoint" />
          </mxGeometry>
        </mxCell>
        <mxCell id="bIHd8Lqd7nxUhWNbO2eW-13" value="" style="ellipse;whiteSpace=wrap;html=1;fillColor=light-dark(#FFCCCC,var(--ge-dark-color, #121212));" vertex="1" parent="1">
          <mxGeometry x="520" y="925" width="160" height="60" as="geometry" />
        </mxCell>
        <mxCell id="bIHd8Lqd7nxUhWNbO2eW-14" value="Subscriber S1" style="text;html=1;align=center;verticalAlign=middle;whiteSpace=wrap;rounded=0;fontStyle=1" vertex="1" parent="1">
          <mxGeometry x="550" y="940" width="100" height="30" as="geometry" />
        </mxCell>
        <mxCell id="bIHd8Lqd7nxUhWNbO2eW-15" value="" style="ellipse;whiteSpace=wrap;html=1;fillColor=light-dark(#FFCCCC,var(--ge-dark-color, #121212));" vertex="1" parent="1">
          <mxGeometry x="740" y="970" width="160" height="60" as="geometry" />
        </mxCell>
        <mxCell id="bIHd8Lqd7nxUhWNbO2eW-16" value="Subscriber S2" style="text;html=1;align=center;verticalAlign=middle;whiteSpace=wrap;rounded=0;fontStyle=1" vertex="1" parent="1">
          <mxGeometry x="770" y="985" width="100" height="30" as="geometry" />
        </mxCell>
        <mxCell id="bIHd8Lqd7nxUhWNbO2eW-17" value="" style="ellipse;whiteSpace=wrap;html=1;fillColor=light-dark(#FFCCCC,var(--ge-dark-color, #121212));" vertex="1" parent="1">
          <mxGeometry x="960" y="940" width="160" height="60" as="geometry" />
        </mxCell>
        <mxCell id="bIHd8Lqd7nxUhWNbO2eW-18" value="Subscriber S2" style="text;html=1;align=center;verticalAlign=middle;whiteSpace=wrap;rounded=0;fontStyle=1" vertex="1" parent="1">
          <mxGeometry x="990" y="955" width="100" height="30" as="geometry" />
        </mxCell>
        <mxCell id="bIHd8Lqd7nxUhWNbO2eW-19" value="" style="ellipse;whiteSpace=wrap;html=1;fillColor=light-dark(#FFCCCC,var(--ge-dark-color, #121212));" vertex="1" parent="1">
          <mxGeometry x="1170" y="895" width="160" height="60" as="geometry" />
        </mxCell>
        <mxCell id="bIHd8Lqd7nxUhWNbO2eW-20" value="Subscriber S2" style="text;html=1;align=center;verticalAlign=middle;whiteSpace=wrap;rounded=0;fontStyle=1" vertex="1" parent="1">
          <mxGeometry x="1200" y="910" width="100" height="30" as="geometry" />
        </mxCell>
        <mxCell id="bIHd8Lqd7nxUhWNbO2eW-28" value="" style="ellipse;whiteSpace=wrap;html=1;fillColor=light-dark(#CCFFCC,var(--ge-dark-color, #121212));" vertex="1" parent="1">
          <mxGeometry x="770" y="110" width="140" height="50" as="geometry" />
        </mxCell>
        <mxCell id="bIHd8Lqd7nxUhWNbO2eW-29" value="Service Bus" style="text;html=1;align=center;verticalAlign=middle;whiteSpace=wrap;rounded=0;fontStyle=1" vertex="1" parent="1">
          <mxGeometry x="790" y="120" width="100" height="30" as="geometry" />
        </mxCell>
        <mxCell id="bIHd8Lqd7nxUhWNbO2eW-37" value="" style="endArrow=none;html=1;rounded=0;" edge="1" parent="1">
          <mxGeometry width="50" height="50" relative="1" as="geometry">
            <mxPoint x="560" y="200" as="sourcePoint" />
            <mxPoint x="1160" y="200" as="targetPoint" />
          </mxGeometry>
        </mxCell>
        <mxCell id="bIHd8Lqd7nxUhWNbO2eW-38" value="" style="endArrow=none;html=1;rounded=0;" edge="1" parent="1">
          <mxGeometry width="50" height="50" relative="1" as="geometry">
            <mxPoint x="840" y="200" as="sourcePoint" />
            <mxPoint x="840" y="160" as="targetPoint" />
          </mxGeometry>
        </mxCell>
        <mxCell id="bIHd8Lqd7nxUhWNbO2eW-39" value="" style="endArrow=none;html=1;rounded=0;" edge="1" parent="1">
          <mxGeometry width="50" height="50" relative="1" as="geometry">
            <mxPoint x="560" y="230" as="sourcePoint" />
            <mxPoint x="559.52" y="200" as="targetPoint" />
          </mxGeometry>
        </mxCell>
        <mxCell id="bIHd8Lqd7nxUhWNbO2eW-40" value="" style="endArrow=none;html=1;rounded=0;" edge="1" parent="1">
          <mxGeometry width="50" height="50" relative="1" as="geometry">
            <mxPoint x="840.2" y="230" as="sourcePoint" />
            <mxPoint x="839.72" y="200" as="targetPoint" />
          </mxGeometry>
        </mxCell>
        <mxCell id="bIHd8Lqd7nxUhWNbO2eW-41" value="" style="endArrow=none;html=1;rounded=0;" edge="1" parent="1">
          <mxGeometry width="50" height="50" relative="1" as="geometry">
            <mxPoint x="1160.48" y="230" as="sourcePoint" />
            <mxPoint x="1160" y="200" as="targetPoint" />
          </mxGeometry>
        </mxCell>
        <mxCell id="bIHd8Lqd7nxUhWNbO2eW-42" value="(Has mapping of Topic to Subscriber)&lt;br&gt;(Listens to different Topics of the service bus, creates the maps and pushes to downstream service bus)" style="text;html=1;align=center;verticalAlign=middle;whiteSpace=wrap;rounded=0;fontStyle=2" vertex="1" parent="1">
          <mxGeometry x="575" y="445" width="570" height="30" as="geometry" />
        </mxCell>
        <mxCell id="bIHd8Lqd7nxUhWNbO2eW-43" value="" style="ellipse;whiteSpace=wrap;html=1;fillColor=light-dark(#CCFFCC,var(--ge-dark-color, #121212));" vertex="1" parent="1">
          <mxGeometry x="770" y="550" width="140" height="50" as="geometry" />
        </mxCell>
        <mxCell id="bIHd8Lqd7nxUhWNbO2eW-44" value="Listener&#39;s Service Bus" style="text;html=1;align=center;verticalAlign=middle;whiteSpace=wrap;rounded=0;fontStyle=1" vertex="1" parent="1">
          <mxGeometry x="780" y="560" width="120" height="30" as="geometry" />
        </mxCell>
        <mxCell id="bIHd8Lqd7nxUhWNbO2eW-45" value="" style="endArrow=classic;html=1;rounded=0;exitX=0.469;exitY=1;exitDx=0;exitDy=0;exitPerimeter=0;entryX=0.413;entryY=0.044;entryDx=0;entryDy=0;entryPerimeter=0;" edge="1" parent="1">
          <mxGeometry width="50" height="50" relative="1" as="geometry">
            <mxPoint x="838.1600000000001" y="480" as="sourcePoint" />
            <mxPoint x="838.8199999999999" y="552.1999999999999" as="targetPoint" />
          </mxGeometry>
        </mxCell>
        <mxCell id="bIHd8Lqd7nxUhWNbO2eW-46" value="&lt;b&gt;{M1, S1}&lt;br&gt;{M1, S2}&lt;br&gt;{M2, S1}&lt;/b&gt;" style="text;html=1;align=center;verticalAlign=middle;whiteSpace=wrap;rounded=0;" vertex="1" parent="1">
          <mxGeometry x="930" y="560" width="60" height="30" as="geometry" />
        </mxCell>
        <mxCell id="bIHd8Lqd7nxUhWNbO2eW-47" value="" style="rounded=0;whiteSpace=wrap;html=1;fillColor=light-dark(#FFFFCC,var(--ge-dark-color, #121212));" vertex="1" parent="1">
          <mxGeometry x="560" y="680" width="120" height="40" as="geometry" />
        </mxCell>
        <mxCell id="bIHd8Lqd7nxUhWNbO2eW-48" value="Dispatcher" style="text;html=1;align=center;verticalAlign=middle;whiteSpace=wrap;rounded=0;" vertex="1" parent="1">
          <mxGeometry x="590" y="687" width="60" height="30" as="geometry" />
        </mxCell>
        <mxCell id="bIHd8Lqd7nxUhWNbO2eW-49" value="" style="rounded=0;whiteSpace=wrap;html=1;fillColor=light-dark(#FFFFCC,var(--ge-dark-color, #121212));" vertex="1" parent="1">
          <mxGeometry x="760" y="680" width="120" height="40" as="geometry" />
        </mxCell>
        <mxCell id="bIHd8Lqd7nxUhWNbO2eW-50" value="Dispatcher" style="text;html=1;align=center;verticalAlign=middle;whiteSpace=wrap;rounded=0;" vertex="1" parent="1">
          <mxGeometry x="790" y="687" width="60" height="30" as="geometry" />
        </mxCell>
        <mxCell id="bIHd8Lqd7nxUhWNbO2eW-51" value="" style="rounded=0;whiteSpace=wrap;html=1;fillColor=light-dark(#FFFFCC,var(--ge-dark-color, #121212));" vertex="1" parent="1">
          <mxGeometry x="960" y="680" width="120" height="40" as="geometry" />
        </mxCell>
        <mxCell id="bIHd8Lqd7nxUhWNbO2eW-52" value="Dispatcher" style="text;html=1;align=center;verticalAlign=middle;whiteSpace=wrap;rounded=0;" vertex="1" parent="1">
          <mxGeometry x="990" y="687" width="60" height="30" as="geometry" />
        </mxCell>
        <mxCell id="bIHd8Lqd7nxUhWNbO2eW-53" value="" style="rounded=0;whiteSpace=wrap;html=1;fillColor=light-dark(#FFFFCC,var(--ge-dark-color, #121212));" vertex="1" parent="1">
          <mxGeometry x="1160" y="680" width="120" height="40" as="geometry" />
        </mxCell>
        <mxCell id="bIHd8Lqd7nxUhWNbO2eW-54" value="Dispatcher" style="text;html=1;align=center;verticalAlign=middle;whiteSpace=wrap;rounded=0;" vertex="1" parent="1">
          <mxGeometry x="1190" y="687" width="60" height="30" as="geometry" />
        </mxCell>
        <mxCell id="bIHd8Lqd7nxUhWNbO2eW-55" value="" style="endArrow=classic;html=1;rounded=0;entryX=0.5;entryY=1;entryDx=0;entryDy=0;" edge="1" parent="1" target="bIHd8Lqd7nxUhWNbO2eW-43">
          <mxGeometry width="50" height="50" relative="1" as="geometry">
            <mxPoint x="620" y="680" as="sourcePoint" />
            <mxPoint x="670" y="630" as="targetPoint" />
          </mxGeometry>
        </mxCell>
        <mxCell id="bIHd8Lqd7nxUhWNbO2eW-56" value="" style="endArrow=classic;html=1;rounded=0;" edge="1" parent="1">
          <mxGeometry width="50" height="50" relative="1" as="geometry">
            <mxPoint x="840" y="680" as="sourcePoint" />
            <mxPoint x="840" y="600" as="targetPoint" />
          </mxGeometry>
        </mxCell>
        <mxCell id="bIHd8Lqd7nxUhWNbO2eW-57" value="" style="endArrow=classic;html=1;rounded=0;entryX=0.5;entryY=1;entryDx=0;entryDy=0;" edge="1" parent="1" target="bIHd8Lqd7nxUhWNbO2eW-43">
          <mxGeometry width="50" height="50" relative="1" as="geometry">
            <mxPoint x="1020" y="680" as="sourcePoint" />
            <mxPoint x="1070" y="630" as="targetPoint" />
          </mxGeometry>
        </mxCell>
        <mxCell id="bIHd8Lqd7nxUhWNbO2eW-58" value="" style="endArrow=classic;html=1;rounded=0;" edge="1" parent="1">
          <mxGeometry width="50" height="50" relative="1" as="geometry">
            <mxPoint x="1220" y="680" as="sourcePoint" />
            <mxPoint x="850" y="600" as="targetPoint" />
          </mxGeometry>
        </mxCell>
        <mxCell id="bIHd8Lqd7nxUhWNbO2eW-59" value="Scale the dispatcher horizontally, if the messages increases" style="text;html=1;align=center;verticalAlign=middle;whiteSpace=wrap;rounded=0;fontStyle=1" vertex="1" parent="1">
          <mxGeometry x="840" y="717" width="350" height="30" as="geometry" />
        </mxCell>
        <mxCell id="bIHd8Lqd7nxUhWNbO2eW-61" value="" style="endArrow=classic;html=1;rounded=0;exitX=0.5;exitY=1;exitDx=0;exitDy=0;" edge="1" parent="1" source="bIHd8Lqd7nxUhWNbO2eW-47">
          <mxGeometry width="50" height="50" relative="1" as="geometry">
            <mxPoint x="580" y="830" as="sourcePoint" />
            <mxPoint x="590" y="920" as="targetPoint" />
          </mxGeometry>
        </mxCell>
        <mxCell id="bIHd8Lqd7nxUhWNbO2eW-62" value="" style="endArrow=classic;html=1;rounded=0;entryX=0.5;entryY=0;entryDx=0;entryDy=0;" edge="1" parent="1" target="bIHd8Lqd7nxUhWNbO2eW-15">
          <mxGeometry width="50" height="50" relative="1" as="geometry">
            <mxPoint x="620" y="720" as="sourcePoint" />
            <mxPoint x="670" y="670" as="targetPoint" />
          </mxGeometry>
        </mxCell>
        <mxCell id="bIHd8Lqd7nxUhWNbO2eW-63" value="" style="endArrow=classic;html=1;rounded=0;entryX=0.5;entryY=0;entryDx=0;entryDy=0;" edge="1" parent="1" target="bIHd8Lqd7nxUhWNbO2eW-17">
          <mxGeometry width="50" height="50" relative="1" as="geometry">
            <mxPoint x="620" y="720" as="sourcePoint" />
            <mxPoint x="670" y="670" as="targetPoint" />
          </mxGeometry>
        </mxCell>
        <mxCell id="bIHd8Lqd7nxUhWNbO2eW-64" value="" style="endArrow=classic;html=1;rounded=0;" edge="1" parent="1">
          <mxGeometry width="50" height="50" relative="1" as="geometry">
            <mxPoint x="620" y="720" as="sourcePoint" />
            <mxPoint x="1240" y="890" as="targetPoint" />
          </mxGeometry>
        </mxCell>
        <mxCell id="bIHd8Lqd7nxUhWNbO2eW-65" value="Dispatches the messages to the assigend subscriber" style="text;html=1;align=center;verticalAlign=middle;whiteSpace=wrap;rounded=0;fontStyle=1" vertex="1" parent="1">
          <mxGeometry x="1000" y="800" width="300" height="30" as="geometry" />
        </mxCell>
        <mxCell id="bIHd8Lqd7nxUhWNbO2eW-66" value="Pull the top message from the service bus" style="text;html=1;align=center;verticalAlign=middle;whiteSpace=wrap;rounded=0;" vertex="1" parent="1">
          <mxGeometry x="570" y="620" width="150" height="30" as="geometry" />
        </mxCell>
        <mxCell id="bIHd8Lqd7nxUhWNbO2eW-70" value="&lt;b&gt;&lt;font style=&quot;font-size: 24px;&quot;&gt;Can we build this on Azure, with azure functions, and other resources?&lt;br&gt;Identify which resource can fit the building blocks.&lt;/font&gt;&lt;/b&gt;" style="text;html=1;align=center;verticalAlign=middle;whiteSpace=wrap;rounded=0;" vertex="1" parent="1">
          <mxGeometry x="340" y="1560" width="1040" height="30" as="geometry" />
        </mxCell>
      </root>
    </mxGraphModel>
  </diagram>
</mxfile>
